/* XPM */
static char *wall[] = {
/* columns rows colors chars-per-pixel */
"64 64 145 2 ",
"   c #171323",
".  c #181425",
"X  c #1A1729",
"o  c #1B192C",
"O  c #1E1D31",
"+  c #201F34",
"@  c #1F2036",
"#  c #202136",
"$  c #23263D",
"%  c #24283F",
"&  c #232740",
"*  c #262B44",
"=  c #292E46",
"-  c #292F49",
";  c #2C324D",
":  c #31364F",
">  c #2E3551",
",  c #303752",
"<  c #323955",
"1  c #353D5C",
"2  c #383F58",
"3  c #363F60",
"4  c #37405B",
"5  c #39415C",
"6  c #374060",
"7  c #3A4465",
"8  c #3E4867",
"9  c #3C4668",
"0  c #3F4A6B",
"q  c #414A64",
"w  c #424D6C",
"e  c #46516D",
"r  c #4A546F",
"t  c #434E70",
"y  c #455172",
"u  c #495675",
"i  c #4F5B75",
"p  c #4C5877",
"a  c #4A5878",
"s  c #4B5878",
"d  c #4B5978",
"f  c #4C5879",
"g  c #4C5979",
"h  c #4D5A78",
"j  c #4C5A79",
"k  c #4D5A79",
"l  c #4D5B79",
"z  c #4E5A78",
"x  c #4E5B78",
"c  c #4E5B79",
"v  c #4D5B7A",
"b  c #4D5A7B",
"n  c #4D5B7B",
"m  c #4E5B7B",
"M  c #4F5C79",
"N  c #4F5C7A",
"B  c #4E5C7B",
"V  c #4F5D7C",
"C  c #4D5A79",
"Z  c #505B75",
"A  c #505C76",
"S  c #505C76",
"D  c #505E7C",
"F  c #515E7C",
"G  c #515F7C",
"H  c #505E7D",
"J  c #515F7D",
"K  c #525F7D",
"L  c #515F7E",
"P  c #515F7F",
"I  c #525F7F",
"U  c #515F7D",
"Y  c #55617B",
"T  c #52607E",
"R  c #52607F",
"E  c #55627E",
"W  c #53607E",
"Q  c #526080",
"!  c #536180",
"~  c #536181",
"^  c #556381",
"/  c #546282",
"(  c #546382",
")  c #556383",
"_  c #576480",
"`  c #556482",
"'  c #556483",
"]  c #566583",
"[  c #576683",
"{  c #566484",
"}  c #566584",
"|  c #576585",
" . c #576684",
".. c #556382",
"X. c #586682",
"o. c #596682",
"O. c #586683",
"+. c #586784",
"@. c #586786",
"#. c #596786",
"$. c #596784",
"%. c #596886",
"&. c #596887",
"*. c #5C6985",
"=. c #5C6A85",
"-. c #5D6A85",
";. c #5E6B85",
":. c #5D6B86",
">. c #5E6B86",
",. c #5E6C86",
"<. c #5F6C87",
"1. c #5F6D87",
"2. c #5D6B86",
"3. c #5A6988",
"4. c #5A6989",
"5. c #5A6A89",
"6. c #5B6A89",
"7. c #5B6A8A",
"8. c #5D6B89",
"9. c #5C6B8A",
"0. c #5C6B8B",
"q. c #5C6C8B",
"w. c #5D6C8B",
"e. c #5D6D8C",
"r. c #5C6B8A",
"t. c #606D87",
"y. c #606D88",
"u. c #606E88",
"i. c #606E89",
"p. c #606F8C",
"a. c #606E88",
"s. c #62708C",
"d. c #61718E",
"f. c #61718E",
"g. c #677793",
"h. c #687894",
"j. c #697995",
"k. c #6A7995",
"l. c #6A7A96",
"z. c #6A7B96",
"x. c #6A7A97",
"c. c #6A7B97",
"v. c #697995",
"b. c #71819C",
"n. c #72829D",
/* pixels */
"& < c e.0.R w 7 7 7 7 w ) N < & & & & < p 3.3.3.0.~ w 7 7 w ) c < & & & & 2 >.n.n.b.n.j.' w > & * * = * & & & & & & & & & * = = ",
"< 5 e G @.) u w w w w y u e 5 < < ; = < p 0.3.@.) c w 7 7 w c y < & & - < q >.j.g.g.g.p.G 0 ; & & & & ; < 4 4 4 4 2 < ; = * * = ",
"c e 4 7 G 3.) G R ~ ) u 5 4 e c c w ; < p w.0.) u 0 9 9 7 9 w 9 ; & & < Z >.X.' ) ' ' G y 7 ; & & & & < Z <.<.>.<.' y 7 ; & * = ",
") p 5 4 e G @.0.w.@.G e 2 5 G e.e.G 8 4 e G @.) u 0 9 9 7 9 9 1 ; & & 4 u.j.' s s s s u 0 1 ; & & - < w >.j.j.j.j.f.G w ; & & & ",
"w y p e 2 5 G e.e.G 5 2 e G @.0.w.&.G e 2 5 G 3.) s 0 7 7 9 9 1 - & $ 2 u.j.' s s c c u 0 1 ; & & < S >.@.' ' ' ' G y 7 ; & & & ",
"7 w c u 5 4 e c c e 2 5 G 3.) Q R ' 3.G 5 2 e G @.| u 0 9 7 7 7 5 2 2 q Y X.c u s c c u 0 1 ; & & 4 u.j.' s s p u w 7 < - - < 4 ",
"7 9 0 y u e 5 < , 4 e G @.| u w w u ' &.G e 2 7 G 3.| c 0 7 7 w Y u.u.Y q 4 9 w u c c u 0 1 ; & & 4 u.j.' s c u w 7 , - & < S u.",
"7 9 0 u | N < * ; 8 G 3.| c 0 7 7 0 c ' 3.G 7 2 e G @.| u 0 9 y 0.j.j.X.4 ; 1 9 e u u y 9 < - & & < p X.c u u w 9 < - = < w >.j.",
"7 0 s | 0.N < ; w G &.' u 0 9 7 7 9 0 u | @.G e 2 5 G 3.| c 0 0 N | | c 9 < ; > 7 w w 9 , - * & & = < 5 9 0 0 7 > - & < Z >.@.' ",
"w u | &.R w ; < c w.w.R w 7 7 9 9 7 7 0 c | 3.G 5 2 e G &.| u y u s s u 0 1 ; - < 1 1 < - = < 4 4 2 2 5 w y w 7 ; & & 4 u.j.' p ",
"~ | 3.G 8 ; = < c w.0.R w 7 7 9 9 7 7 9 0 u | @.G e 4 8 G 3.| G c s c u 0 1 ; = - ; ; - & < S w.<.>.>.<.f.0.V 0 ; & & 4 u.j.' p ",
"p c c w > & & < c w.0.R w 7 7 9 9 9 9 7 7 0 c | 3.c < ; w c c c c c c u 0 1 ; & & & & = < w >.j.j.j.j.j.j.f.G 0 ; & & 2 Y w.R s ",
"< < < , = & & < c w.0.R w 7 7 9 9 9 9 7 7 9 0 u | c < = ; < < 5 y c c u w 1 ; & & & & < S >.@.' ' ' ' ' ' G y 7 ; & & > 0 u c c ",
"< ; = & & & & , w G &.' u 0 9 7 7 9 9 9 9 7 7 w ~ c < & & = ; 4 w u u y 9 < ; & & - < w >.f.~ s s s s s c u 0 1 ; & & - < 9 y u ",
"c w ; & & * * = ; 8 G 3.| c 0 7 7 7 7 7 9 7 7 w ~ c < & & ; w u w 0 0 9 < ; = & & < S >.@.~ N s s s s c c u 0 1 ; & & = - , 9 w ",
") p 7 ; = & & & & ; w G &.' u 0 9 7 7 7 7 9 0 u | c < = ; 8 c c 9 1 1 < - & & & & 4 u.j.' s s c c c c s u y 9 < - * * & & - < 1 ",
"w y p w , & & & & = ; 8 G 3.| c 0 7 7 7 7 0 c | 3.c < ; w c y 9 > - - - * & & & & 4 u.j.' s c c c c c u t 9 < ; = * * & & & = - ",
"7 w ) D < = ; < < < < 4 e G &.| u w w w w u | &.G e 5 5 p m w 7 4 2 2 2 < ; = & & < S X.N u u u u u u y 9 < - & & & & - < 4 4 2 ",
"7 w ) N < ; w c c c c e 2 5 G 3.| ~ ~ ~ ~ ' 3.G 5 4 e p y w 9 w Y <.<.X.u 8 ; & * ; < 5 8 w 0 0 0 0 0 9 , - = * * & & < S <.<.>.",
"w y u e 4 8 G w.w.w.w.G 5 2 e p c G @.0.w.@.G e 2 5 p m w 7 7 y 0.j.j.f.G 0 ; & * * & - < 1 1 1 1 1 1 < - & * * & - < w >.j.j.j.",
") u 5 4 e G @.0.0.0.0.@.G e 4 , < 8 G e.e.G 5 4 e p y w 9 7 7 w V | | G y 7 ; & * * & * - ; ; ; ; ; ; - = & * & & < S >.@.' ' ' ",
"c e 4 7 G 3.) ~ R R R ) 3.G 8 ; & ; w N N e 4 5 u c w 7 7 9 w y u s s u w 7 > - = * * * & & & & & & & & & & & & & 4 u.j.' p s s ",
"< 5 e G &.| u w w w w u | &.G w ; * ; < < 5 e u y 0 9 7 7 0 c ~ N s s s u w 9 < ; * * * * & & & & & & & & & & & & 4 u.j.' s s s ",
", 7 G 3.| c 0 7 7 7 7 0 c | 3.G 8 ; = & & < N | u 0 9 9 w y u c c c c c c u 0 1 ; & * & & ; < 4 4 4 4 4 4 2 < ; = 4 <.j.' s s c ",
"p D @.' u 0 9 7 7 7 7 9 0 u ) @.R w > & & < N 0.| s 0 0 c p 5 5 y c c c c u 0 1 ; & & & & < S u.<.<.<.<.<.X.u 7 ; 2 <.j.' s s c ",
"0.3.) c 0 7 7 9 7 7 9 7 7 w G 3.e.N < & & , w R &.| u y p w ; ; w N c c c u 0 1 ; & & - < w >.j.j.j.j.j.j.f.G 0 ; < Y w.~ c c c ",
"0.) u 0 9 7 7 9 7 7 9 7 7 w ~ 3.w.c < & & = ; 8 G 3.| p 7 ; = > w N c c c u 0 1 ; & & < S >.@.' ' ' ' ' ' G y 7 ; ; 8 u c c c c ",
"3.R w 7 7 9 9 9 9 9 9 7 7 w ~ 3.w.c < & & & & ; w c N w ; & & > w u u u u y 9 < ; & & 4 u.j.' s s c c c c u 0 1 ; - , 7 w u u u ",
"3.~ w 7 7 9 9 9 9 9 9 7 7 w ~ w.e.N < & & & & = ; < < ; = & & ; 7 0 0 0 w 9 < - = & & 4 u.j.' s s c c c c u 0 1 ; * - > 9 0 0 0 ",
"0.) u 0 9 9 9 9 9 9 9 9 w u | &.R w , & & - , < < < < < < , - ; < 1 1 1 1 1 - & & & & < S X.c u u u u u u y 9 < - & & - < 1 1 1 ",
"0.3.| c w 9 9 9 9 9 9 w c | 3.R 8 > - & & , e D c c c N D e , = - ; ; ; ; ; = & & & & ; < 5 0 0 0 0 0 0 0 9 , - = * * = ; ; ; ; ",
"r y p y 9 1 1 1 1 1 1 9 y c p q = # $ $ & , e D N c N N D e , & $ $ $ $ $ % - ; ; ; ; - * = > < < < < < < ; & $ $ $ $ $ $ $ $ $ ",
"$ = : < ; ; ; ; ; ; ; ; < , = # o X X O $ - , < < < < < < , - $ O o o X X # > 6 1 1 3 1 - $ # + + + + + + O o X X X o o o o o o ",
"X o @ $ & * * & * * * & $ @ o X X X . o $ = & & & & & & & & * $ o   . X o % , 3 1 1 3 1 ; $ O X .     . O + + + + O o X . . . . ",
"$ # o O $ = * * * * = $ O o # $ $ @ X X $ = * & & & * * & * * $ o     O ; < > ; ; ; ; ; = & $ @ X     o - < < < 1 > & # X   . . ",
"= % O o # $ & = = & % # o O % = = % O O # % & = = = = = * * = $ o     # 1 6 ; & & & * * * * = $ o . o % < 6 6 3 6 1 ; $ o . . . ",
"= & $ # o O % = = $ O o # % & = = & % # o O $ = = = * * * * = $ X     # 1 6 ; & & & * * * = = $ o O - < > ; ; ; ; ; - $ o       ",
"* * = $ O o # $ $ # o O % = * * * = = $ O o # % & = * * * * * & # O . O ; , - * * * * * * & % @ X # 1 6 ; & & * * & % # X X O # ",
"* * = & $ # O o X O # % & = * * * * = & $ # o O % = * * * * * - , ; O . O # & = * * * * = % O X . # 1 6 ; * * = = % O X   O ; 1 ",
"* * * = = $ o . X O % = = * * * * * * = = % O o # % & * * * * ; 1 , # X . X # % & = = & % # X     O - > & $ $ $ $ # X . o & < 6 ",
"* * * = = $ o X @ % & * * * * * * * * * = & $ # o O $ = * * * = ; - & # X . X O % = = % O X .     X O O o o o o o X . O ; < > ; ",
"* * = & % # X o $ = * * * * * * * * * * * = = % O o # $ & = = * & * = $ o     X # $ $ # X . O # # # + O o X . .       # 1 6 ; & ",
"= = = % O X . o $ = = * * * * * * * * * * * = & $ # O O % = = * * * = $ o . . . X o o X   o ; 1 1 1 < > & @ X         # 1 6 ; & ",
"$ $ $ # X     o $ = * * * * * * * * * * * * * = = $ X X # $ $ $ & * = $ o . . . . .   . O & < 6 6 6 6 1 ; $ O X .     O > 1 ; & ",
"o o o X . . . o $ = = * * * * * * * * * * * * = = $ o . X o o O $ = = $ o . . . . .   O ; < > ; ; ; ; ; = & % # X .   o * ; = * ",
"o X .   . . . X # % & * * * * * * * * * * * * * = $ o .   . X O $ * % # X . . . . X O & < 1 ; & & & & * * = = $ o . . X # $ & * ",
"$ # X   . . . . X O % = = * * * * * * * * * * * * $ o     X # % * % O X . . . .   O ; < > ; = & & * * * * = = $ o . . . X O % = ",
"= % O X . . .     X # % & = * * * * * * * * * * = $ o . X O % & % @ X     . .     # 1 6 ; & & * * * * * * & % # X . . .   X @ $ ",
"= & % # X .       . X O $ = * * * * * * * * * = = $ o X # & * % O X .     . .     # 1 6 ; & * * * * * * = % O X . . . .   . X X ",
"* = = $ o . X o o o o O # $ & = = = * * * * = & % # O O % = = & # + # O o X .     O ; , - * * * * * = & % # X   . .   X O # # + ",
"* = = $ o X # $ $ $ $ # o O $ = = * * * * * = % O o # % & * * - > 1 1 > * # X   . X O # & = = * = = = % O X . . . .   O ; 1 < < ",
"= & $ # O O $ = = = = % O o # $ $ % & * = & % # o O $ = = * & ; 1 6 6 1 ; $ O X .     X # $ $ $ $ $ $ # X   . . . X O % < 6 3 1 ",
"= % O o # % & = = * = & $ # O X o O % = = $ O o # % & * * * * = ; ; ; ; = & % # X     . X o o o o o o X . . . .   O ; , > ; ; ; ",
"$ # O O $ = * * * * * * = % O X . X # $ $ # o O % = = * * * * * * & & & * * = % O X . . . .               . .     # 1 6 ; & & * ",
"o O # % & * * * * * * * * & % # X . X o o O # % & = * * * * = * * * * * * * * & % # X . .                   .     # 1 6 ; & & * ",
"X O $ = * * * * * * * * * = = % O X .     o $ = = * * * * & $ $ & * * * * * * = = $ o     X O # # # # # # O o X . # 1 6 ; & * * ",
"$ $ & = * * * * * * * * * * = & % # X     o $ = = * * * = % O O $ = = * * * * = = $ o     O ; 1 1 < < 1 1 > & @ X # < 6 ; & & * ",
"= = * * * * * * * * * * * * * * = $ o   . X # % & = = & % # X o $ = = * * * * * = $ o . o % < 6 6 1 1 3 3 1 ; $ X O > 1 ; & * * ",
"* * * * * * * * * * * * * * * * = $ o . . . X O % = = % O X . o $ = = * * * * * = $ o O ; < > ; ; ; ; ; ; ; - $ X o & ; = * * * ",
"* * * * * * * * * * * * * * * = = $ o . . .   X # $ $ # X     o $ = = * * = = & $ @ X # 1 6 ; & & & & & & * = $ o X @ $ & * * * ",
"* * * * * * * * * * * * * * * = = $ o   . . . . X o o X .     o $ = = * * = = % O X . # 1 6 ; & & * * * * * = $ o . X O % = = = ",
"* * * * * * * * * * * * * * * & % # X   . . X o o o o o o X . X @ $ $ $ $ $ $ # X     O ; > - * * * * * * & % # X .   X # $ $ $ ",
"* * * * * * * * * * * * * * = % O X . . . X # $ $ $ $ $ $ # X . X o o o o o o X . . . X O # & * * * * = * $ O X . . . . X o o o ",
"* * * * * * * * * * * * * * = $ o   . . . o $ = = = = = = $ o                 . . . .     X $ = * * = = = $ o   . . . . . . . . "
};
