/* XPM */
static char *Char2_4sides[] = {
/* columns rows colors chars-per-pixel */
"64 16 13 1 ",
"  c None",
". c #14182E",
"X c #52333F",
"o c #2B2B45",
"O c #2C354D",
"+ c #404973",
"@ c #8F4D57",
"# c #BD6A62",
"$ c #4C6885",
"% c #686F99",
"& c #4FA4B8",
"* c #FFC2A1",
"= c #DFE0E8",
/* pixels */
"     ......          ......          ......          ......     ",
"    .++++++.        .++++++.        .++++++.        .++++++.    ",
"   .+%%+++++.      .+++++%%+.      .%++++++%.      .%++++++%.   ",
"   .+++%%+++.      .+++%%+++.      .+%++++%+.      .%++++++%.   ",
"   .+++++%++.      .++%+++++.      .++++++++.      .+%++++%+.   ",
"   .++++++**.      .**++++++.      .++++++++.      .++****++.   ",
"   .+++++oo*.      .*oo+++++.     .*++++++++*.    .*+OO**OO+*.  ",
"   .++**o*.*.      .*.*o**++.     .*++++++++*.    .*O*.**.*O*.  ",
"   .++*#+*.#.      .#.*+#*++.      .++++++++.      .+*.##.*+.   ",
"   .+++*+**.        .**+*+++.      .++++++++.      .+#****#+.   ",
"   .++.X#..          ..#X.++.     .*O++++++O*.    .*=X@##@X=*.  ",
"   .+.=.X@=.        .=@X.=.+.    .*#.O++++O.#*.  .*#.X@==@X.#*. ",
"    ..*#.@=.        .=@.#*..     .**.XX@@XX.**.  .**.@@==@@.**. ",
"     .**.&&.        .&&.**.       ....$&&$....    ....$&&$....  ",
"      ..##.          .##..          .##..##.        .##..##.    ",
"        ..            ..             ..  ..          ..  ..     "
};
