/* XPM */
static char *Heart[] = {
/* columns rows colors chars-per-pixel */
"64 64 190 2 ",
"   c None",
".  c #06152D",
"X  c #0C172D",
"o  c #10172D",
"O  c #15182E",
"+  c #1D192F",
"@  c #1E1930",
"#  c #161830",
"$  c #211B2F",
"%  c #2C1D2F",
"&  c #341E2F",
"*  c #3B1F2E",
"=  c #251A31",
"-  c #2C1B32",
";  c #331D32",
":  c #3C1E34",
">  c #3E202F",
",  c #3D2130",
"<  c #421F35",
"1  c #481F37",
"2  c #45202E",
"3  c #4B222F",
"4  c #52232F",
"5  c #5C252F",
"6  c #442231",
"7  c #4C2235",
"8  c #4C2038",
"9  c #532433",
"0  c #5A2633",
"q  c #5D2933",
"w  c #522138",
"e  c #5B2239",
"r  c #62252F",
"t  c #6C272F",
"y  c #622636",
"u  c #692730",
"i  c #642932",
"p  c #6B2A32",
"a  c #64243A",
"s  c #6B253B",
"d  c #6F2838",
"f  c #742C33",
"g  c #7C2D33",
"h  c #74263D",
"j  c #7A273E",
"k  c #74283A",
"l  c #7C293C",
"z  c #6A3137",
"x  c #793539",
"c  c #832E32",
"v  c #83293E",
"b  c #8C2C3D",
"n  c #882D31",
"m  c #912F34",
"M  c #932D3E",
"N  c #9B2F3E",
"B  c #843034",
"V  c #863034",
"C  c #8B3234",
"Z  c #8A3A3B",
"A  c #933234",
"S  c #9C3434",
"D  c #9D303C",
"F  c #94393B",
"G  c #A33535",
"H  c #AB3635",
"J  c #AB3836",
"K  c #A4323D",
"L  c #AA333D",
"P  c #A23B39",
"I  c #B43935",
"U  c #BA3B36",
"Y  c #B4353E",
"T  c #BC373F",
"R  c #B53A3A",
"E  c #BD383C",
"W  c #B33636",
"Q  c #C33D37",
"!  c #CB3D36",
"~  c #C53A3D",
"^  c #CB3D3B",
"/  c #D43E36",
"(  c #DA3F35",
")  c #D43D3E",
"_  c #D93F3D",
"`  c #AF433E",
"'  c #B8413C",
"]  c #CC4038",
"[  c #CA483F",
"{  c #DE4136",
"}  c #D34139",
"|  c #DC433B",
" . c #E44236",
".. c #EC4437",
"X. c #E4443A",
"o. c #EA4638",
"O. c #E6483C",
"+. c #EB4B3D",
"@. c #F04537",
"#. c #F04638",
"$. c #F04D3E",
"%. c #872940",
"&. c #8D2A40",
"*. c #8B2A40",
"=. c #942C41",
"-. c #9E2D43",
";. c #9A2C42",
":. c #A42E43",
">. c #AA2F44",
",. c #A43041",
"<. c #AC3141",
"1. c #B33243",
"2. c #BC3443",
"3. c #C33643",
"4. c #C83743",
"5. c #C63841",
"6. c #CC3941",
"7. c #D03B40",
"8. c #894040",
"9. c #9B4945",
"0. c #A64642",
"q. c #BB4D45",
"w. c #AA534C",
"e. c #B0514A",
"r. c #BA5D53",
"t. c #C34840",
"y. c #DC4D41",
"u. c #D34C42",
"i. c #C8554B",
"p. c #DC5749",
"a. c #D35D50",
"s. c #E64F41",
"d. c #E94E40",
"f. c #F24F40",
"g. c #E55043",
"h. c #ED5344",
"j. c #EB5748",
"k. c #ED5A4A",
"l. c #E6594A",
"z. c #F35444",
"x. c #F95544",
"c. c #F35B4A",
"v. c #FB5C4A",
"b. c #CA675A",
"n. c #DB6D5C",
"m. c #D56153",
"M. c #EE604F",
"N. c #F2604F",
"B. c #FF614E",
"V. c #E26354",
"C. c #ED6452",
"Z. c #EF6D5A",
"A. c #E96C5A",
"S. c #F46552",
"D. c #FA6451",
"F. c #F46956",
"G. c #FD6955",
"H. c #F16D5A",
"J. c #FC6D59",
"K. c #EB705E",
"L. c #F2715D",
"P. c #FB725D",
"I. c #D57363",
"U. c #DE7F6C",
"Y. c #EC7E69",
"T. c #E47865",
"R. c #F27662",
"E. c #F87661",
"W. c #F37B65",
"Q. c #FD7C65",
"!. c #F37F69",
"~. c #DF806C",
"^. c #EE826C",
"/. c #F5836C",
"(. c #FB836C",
"). c #EC8A73",
"_. c #E78973",
"`. c #F48B73",
"'. c #FC8C73",
"]. c #EE937B",
"[. c #F5957C",
"{. c #FA947A",
"}. c #F7987E",
"|. c #FC987E",
" X c #F99177",
".X c #F49B81",
"XX c #F99C81",
"oX c #F6A186",
"OX c #F9A286",
"+X c #F9A68A",
/* pixels */
"                    . . . . . . . . . . . . . . . . .                     X X X X X X X X X X X X X X X X X                     ",
"                  X X X X X X X X X X X X X X X X X X                     X X X X X X X X X X X X X X X X X X                   ",
"                  X X X X X X X X X X X X X X X X X X                     o o o o o o o o o o o o o o o o o o                   ",
"                  O O O O O O O O O O O O O O O O O O                     O O O O O O O O O O O O O O O O O O                   ",
"                  + + + + + $ $ $ + $ $ $ $ + + $ + +                     @ @ @ + + + + + + + + + + + + + + +                   ",
"                  % % % % % % % % % % % % % % % % % % %                 = = = = = = = = = = = = = = = = = = =                   ",
"                ; , , , , , , , , , 6 , > > > > * * * &                 = - - ; ; ; ; ; ; ; ; ; ; ; ; ; ; ; - -                 ",
"              , 6 6 7 7 9 9 9 9 9 9 9 9 4 4 4 4 3 3 2 * &             = ; ; : : : < < < < < < < < < < < : : : ; -               ",
"            & 6 7 9 0 i i p p p p p p p p p u r r 5 4 3 * & $     @ = - ; : < 8 8 w w w w w w w w 9 9 8 8 7 < : ; -             ",
"  X X O + % , 6 9 q p f g g c c c c c c c c g g f t r 4 2 & $ + + @ = ; : 1 w e e a a a a a a a a a a e e 9 8 < : - = + O o X   ",
". X X O + % , 7 0 p f B C A S S S G G G S S A m n g p 5 3 * % $ @ = = ; < w e a s h h j j j j j h h h s a e w 7 : ; = + O o X X ",
". X X O $ % , 7 q f B A G J I I U U U U I I H G S C g i 4 > % $ = = - : 8 e s h j v *.*.&.&.&.&.*.v v j h a e 8 : ; = + O o X X ",
". X X O + % , 9 i g C G I U Q ] ] } } } ] ! Q U J S B p 0 6 & % - - ; < w a h v &.=.;.;.-.-.-.;.;.=.&.v j s e 8 < ; = + O o X X ",
". X X O $ % , 9 i g A J U ] } | X.X.O.O.O.| } ] ' P C x i 7 , ; ; ; : 8 e s l &.;.:.:.>.>.>.>.>.>.:.;.&.v h a 9 < ; = + O o X X ",
". X X O $ % , 9 p c S I Q } | O.+.$.f.z.h.g.y.u.t.` F Z z 0 7 6 , 6 8 e a k b =.:.<.1.1.1.2.1.1.>.>.:.=.v h a w < ; = + O o X X ",
". X X O $ % , 9 p c S I ! | O.+.z.x.x.v.c.k.l.p.i.q.0.8.x z 0 7 7 9 0 y k v M K <.1.2.2.2.2.2.2.1.>.>.;.*.h a w < ; = + O o X X ",
". X X O $ % , 9 p c S I ] | +.z.x.v.v.D.D.F.C.V.m.i.e.9.8.x z i q y p k v M D L 1.2.3.3.3.3.3.2.2.1.>.;.*.j a w < ; = + O o X X ",
". X X O $ % > 9 p c S I ] | +.z.v.B.G.J.P.E.R.T.n.b.r.w.9.8.x x f f g c M D L Y T 5.4.4.4.3.3.3.2.1.>.;.*.j a w < ; = + O o X X ",
". X X O $ % > 9 p c S I ] | d.z.v.G.P.Q.Q.(./.^.T.I.b.r.w.9.F Z C C A S G J R ~ ~ ~ 6.6.6.4.3.3.2.1.>.;.*.h a w < ; = + O o X X ",
". X X O $ % > 9 p c S I ] | d.c.D.J.Q.(.'.'. X`.).~.I.b.r.e.0.P S G G H I E ~ ^ ^ ) ) 7.6.6.3.3.2.1.>.;.*.h a w < ; = + O o X X ",
". X X O + % > 9 p c S I ] | g.c.D.P.Q.'.{.|.XX}.]._.U.I.b.i.q.' R I U U Q ! ! ) ) ) ) ) 7.6.4.3.2.1.>.;.*.h a w < ; = + O o X X ",
". X X O + % > 4 u c S I ! | g.k.F.E.(.'.|.OXOXoX.X]._.T.n.a.i.[ ] ! ! ! / / ( | | | _ ) ) 6.6.3.2.1.>.=.%.h a w < ; = + O o X X ",
". X X O + % * 4 t c S I ! | g.k.F.E.(. XXXOX+X+XoX[.).Y.A.V.p.y.| | ( ( ( {  .X.| | | _ ) 6.6.3.2.<.>.=.%.h a w < ; = + O o X X ",
". X X O + % * 4 t c S I ! | g.k.F.E.(. XXXOX+X+XoX}.`.Y.K.C.l.s.O.X. . . . . .X.X.X.| _ ) 7.6.3.2.1.:.=.%.h a w < ; = + O o X X ",
". X X O $ % > 9 p c S I ! | g.k.F.P.(.'.|.XXOXOXXX[.`.W.Z.C.j.d.+.O...........X.X.X.X.| ) 7.6.5.2.1.:.;.%.h a w < ; = + O o X X ",
". X X O + % , 9 p c S I ! | s.c.S.P.Q.(.'.[.}.}.[.`./.R.H.N.h.d.+.............O.O.X.X.| _ ) 6.5.2.1.:.;.*.h a w < ; = + O o X X ",
". X X O $ % , 9 p c S I ! | d.z.N.F.P.Q./.`.`.`.`./.W.L.S.c.h.+.+...............O.X.X.| _ ) 6.5.2.1.>.;.*.h a w < ; = + O o X X ",
". X X O $ % , 9 p c S I ] | +.z.c.D.J.P.W.!./.!.W.R.L.F.N.k.h.+.+...............O.X.X.| _ 7.6.4.2.1.>.;.*.h a w < ; = + O o X X ",
". X X O $ % > 9 p c S I ] | +.z.c.c.S.F.H.L.L.L.Z.Z.C.M.k.h.d.+...............O.O.X.X.| _ 7.6.4.2.1.>.;.*.h a w < ; = + O o X X ",
". X X O $ % , 9 p c S I ] | +.+.z.z.c.c.S.C.C.C.C.M.k.k.h.d.+.+.O.O.........O.O.X.X.X.| _ 7.6.5.2.1.>.;.*.h a w < ; = + O o X X ",
". X X O $ % , 9 p c S I ! | X.+.+.z.z.h.h.j.j.j.j.j.h.g.d.+.+.O.O.O.O...O.O.O.X.X.X.X.| ) 7.6.3.2.1.:.;.%.h a w < ; = + O o X X ",
". X X O $ % , 9 p c S J Q } | X.+.+.+.+.d.d.d.s.d.d.+.+.O.O.X.X.X.X.O.O.O.O.X.X.X.X.| _ ) ^ 5.2.1.<.:.=.v h a w < ; = + O o X X ",
". X X O + % , 9 i g A J U ! } | | X.X.X.O.O.O.O.O.O.O.X.O.O.O.X.X.X.X.X.X.X.X.X.X.| ) ) ^ ~ 2.1.<.:.;.&.l s e 8 : ; = + O o X X ",
". X X O + % , 7 i f C S J U Q ! } } | | X.X.X.X.X.O.O.O.O.O.O.X.X.X.X.X.X.X.X.X.| _ ) ^ ~ T Y <.,.;.&.v h s e 8 : ; = + O o X X ",
". X X O + % , 7 q p g C S J I U Q ! ! / {  . . ...........O.O.X.X.X.X.X.X.X.X.| _ ) ^ ~ T Y L N M b v h s a w < : ; = + O o X X ",
". X X O + % , 6 9 i f g C A S G J U Q ! / {  .............O.O.O.X.X.X.X.X.X.| _ ) ^ ~ T Y K N b v j k s a w 8 < : - = + O o X X ",
"      O + % ; 6 7 9 i p f g B A S H I Q ! (  .....@.@.......O.O.X.X.X.X.X.| _ ) ^ ~ T Y K N b v k s a e w 8 < : ; - = + O       ",
"            ; , 6 7 7 9 q i f g C S H U ! /  .....@.@.@.@...O.O.X.X.X.X.| _ 7.6.6.3.Y L N b l k a e 9 8 < : : ; - =             ",
"              ; , , , 6 7 9 q p g C S I Q / { o...@.@.@.@...O.X.X.X.X.| _ ) 7.6.3.2.<.N b l k a e 8 < : ; ; - = =               ",
"                % % % & , 6 7 0 p g A G U ! | X.O...........O.X.X.X.| _ ) 6.6.3.2.1.,.M v k a e 8 : ; - = = = =                 ",
"                  + + $ % ; , 7 q f C S I Q } | X.O.O.O.O.O.X.X.X.| | ) ^ 6.3.2.1.,.;.b j s e 8 : ; = = @ + +                   ",
"                    o O + % ; 6 9 p g A J U ! } | | X.X.X.X.X.| | | ) ^ ~ 3.2.1.,.;.&.v h a 9 < ; = = + O o                     ",
"                    X X O + % , 7 i f C S J U Q ! } } | | | | | } ) ^ ~ T Y <.,.;.&.v h a e 8 : - = + O o X                     ",
"                      . X O % & 6 9 p g C S J I U ~ Q ! ) ) ) ) ) ^ ~ E Y L D M b v h s e 8 < ; = @ O X X                       ",
"                        X o + % , 7 q p g C A S G H R E ~ ! ^ ^ ~ ~ T Y K N b v j h a e w < : ; = + o X                         ",
"                          o + % , 6 9 q p f g B C S G J R E ~ ~ ~ T Y L D b v k s a e w < : ; - = + o                           ",
"                              % & , 6 9 0 i i d g c m D L Y T T 2.1.L D b v k a e w 8 < : ; - = =                               ",
"                                % & > 6 6 7 9 0 i f g b D K L 1.1.<.K M v k a e 8 < : ; ; - = =                                 ",
"                                  % % & & , 6 6 9 y k l b N ,.<.<.:.M b j s e 8 : ; - = = = =                                   ",
"                                    $ $ % % ; : 6 9 y k v b ;.:.:.;.b l s e 8 : ; = = @ + +                                     ",
"                                    O O + + $ - : 7 e s h v =.=.=.=.v h a e 7 ; = = + O o o                                     ",
"                                      X X O + = ; : 8 e s j v *.*.v j s e 8 : ; = + O X X                                       ",
"                                        X X O @ = : < w a s h j j h s a w 7 : - @ O X X                                         ",
"                                          X X + = ; < 8 e a s s s s a e 8 < ; = + o X                                           ",
"                                              O = - : < 8 w e e e e w 8 < : ; = +                                               ",
"                                                = = ; : < 1 8 8 8 8 8 < : ; - =                                                 ",
"                                                  = - ; : : : : : : : : ; ; =                                                   ",
"                                                    = - - ; ; ; ; ; ; - - =                                                     ",
"                                                      = = = = = = = = = =                                                       ",
"                                                      + + + + + + + + + +                                                       ",
"                                                      O O O O O O O O O O                                                       ",
"                                                      o o o o o o o o o o                                                       ",
"                                                      X X X X X X X X X X                                                       ",
"                                                      X X X X X X X X X X                                                       "
};
