/* XPM */
static char *coint[] = {
/* columns rows colors chars-per-pixel */
"64 64 197 2 ",
"   c None",
".  c #050B29",
"X  c #0A0F2A",
"o  c #05112E",
"O  c #0D132D",
"+  c #14182E",
"@  c #1A1B2E",
"#  c #1A1E30",
"$  c #231F2E",
"%  c #2D242E",
"&  c #23202F",
"*  c #3B2A2E",
"=  c #36282E",
"-  c #232533",
";  c #2D2E36",
":  c #2E2630",
">  c #3B2D31",
",  c #2E3038",
"<  c #2E3037",
"1  c #3B3335",
"2  c #35363A",
"3  c #3B3B3C",
"4  c #38383A",
"5  c #442E2E",
"6  c #482F2E",
"7  c #4A312E",
"8  c #47302F",
"9  c #54352E",
"0  c #5B382E",
"q  c #59372E",
"w  c #493431",
"e  c #4A3B36",
"r  c #5A3D32",
"t  c #573830",
"y  c #633C2E",
"u  c #693F2E",
"i  c #43423F",
"p  c #4A443D",
"a  c #5B483A",
"s  c #6D402E",
"d  c #7E482E",
"f  c #77452E",
"g  c #6B4734",
"h  c #7B4B31",
"j  c #6E543D",
"k  c #7F5135",
"l  c #464540",
"z  c #484741",
"x  c #4A4942",
"c  c #504E44",
"v  c #555345",
"b  c #5A5545",
"n  c #5A5847",
"m  c #5B5948",
"M  c #615E4A",
"N  c #6D5C43",
"B  c #6B654C",
"V  c #6D6A4F",
"C  c #66634C",
"Z  c #746F51",
"A  c #7A7553",
"S  c #7E7955",
"D  c #747051",
"F  c #6E6B50",
"G  c #81492E",
"H  c #8A4E2E",
"J  c #94522E",
"K  c #9D572F",
"L  c #845738",
"P  c #975A33",
"I  c #834C30",
"U  c #A65B2E",
"Y  c #A95C2E",
"T  c #95663D",
"R  c #BC662F",
"E  c #B3622F",
"W  c #A86536",
"Q  c #B56733",
"!  c #BA733A",
"~  c #C26C32",
"^  c #CC6F31",
"/  c #CE7132",
"(  c #C87638",
")  c #D27231",
"_  c #DD7933",
"`  c #D57B37",
"'  c #E27C33",
"]  c #816947",
"[  c #957549",
"{  c #817B56",
"}  c #807551",
"|  c #8E744B",
" . c #AA7A45",
".. c #BD7B40",
"X. c #DD853C",
"o. c #CE803D",
"O. c #EC8335",
"+. c #E78539",
"@. c #F58C39",
"#. c #FB8E38",
"$. c #F18635",
"%. c #FE953D",
"&. c #FF983D",
"*. c #8A8459",
"=. c #948C5C",
"-. c #948355",
";. c #97905E",
":. c #BE8749",
">. c #A8965D",
",. c #BD9857",
"<. c #A98952",
"1. c #BCA25F",
"2. c #9F9760",
"3. c #A69D62",
"4. c #A89F64",
"5. c #AAA165",
"6. c #B6AC69",
"7. c #BAAE69",
"8. c #B5A765",
"9. c #BDB36C",
"0. c #D18944",
"q. c #D2974E",
"w. c #E79646",
"e. c #FE9E42",
"r. c #F79640",
"t. c #D1A359",
"y. c #FFA445",
"u. c #FFAB4A",
"i. c #F6A44B",
"p. c #FFB24E",
"a. c #E3A957",
"s. c #F7AB51",
"d. c #FFB654",
"f. c #FFBA55",
"g. c #FEBE5B",
"h. c #F5B559",
"j. c #E1B35F",
"k. c #C8B86C",
"l. c #CBBF70",
"z. c #D7B665",
"x. c #E8BC64",
"c. c #FFC35C",
"v. c #CEC271",
"b. c #D1C573",
"n. c #DCCD75",
"m. c #D5C874",
"M. c #DED077",
"N. c #DFD178",
"B. c #DEC46E",
"V. c #EDC86B",
"C. c #FEC662",
"Z. c #FFCB63",
"A. c #FDCE69",
"S. c #FFD46B",
"D. c #FFD96F",
"F. c #E2D579",
"G. c #EBDC7C",
"H. c #EBD274",
"J. c #FFDC72",
"K. c #F7DA76",
"L. c #EFE07E",
"P. c #FFE276",
"I. c #F3E27E",
"U. c #FFE57B",
"Y. c #FFEA7D",
"T. c #F4E580",
"R. c #FEED83",
"E. c #FCEC82",
"W. c #F7E881",
"Q. c #FFF184",
"!. c #FFF285",
"~. c #FFF385",
"^. c #FFF284",
"/. c #FFF586",
"(. c #FFF486",
"). c #FFF687",
"_. c #FFF787",
"`. c #FFF686",
"'. c #FFF585",
"]. c #FFF183",
"[. c #FFF887",
"{. c #FFF688",
"}. c #FFF888",
"|. c #FFF988",
" X c #FFF989",
".X c #FFF889",
"XX c #FFFA89",
"oX c #FFFB89",
"OX c #FFFB8A",
"+X c #FFFC89",
"@X c #FFFC8A",
"#X c #FFFD8A",
"$X c #FFFE8B",
"%X c #FFFF8B",
"&X c #FFFE8A",
"*X c #FFFF8C",
"=X c #EFE380",
/* pixels */
"                          . . . . . . . . . . . . . . . . . . . . . . . . . . . . . . . . . . . . . .                           ",
"                          . . . . . . . . . . . . . . . . . . . . . . . . . . . . . . . . . . . . . .                           ",
"                          X X X X X X X X X X X X X X X X X X X X X X X X X X X X X X X X X X X X X X                           ",
"                          O O O O O O O O O O O O O O O O O O O O O O O O O O O O O O O O O O O O O O                           ",
"                          + + + + + + + + + + + + + + + + + + + + + + + + + + + + + + + + + + + + + +                           ",
"                          # # # # # # # # # # # # # # # # # # # # # # # # # # # # # # # # # # # # # #                           ",
"                          - - - - - - - - - - - - - - - - - - - - - - - - - - - - - - - - - - - - - -                           ",
"                        ; ; ; ; ; ; ; ; ; ; ; ; < < ; ; ; ; ; ; ; ; ; < ; ; ; ; ; ; ; ; ; ; ; ; ; ; ; ;                         ",
"                        2 2 4 4 4 3 3 3 3 3 3 3 3 3 3 3 3 3 3 3 3 3 3 3 3 3 3 3 3 3 3 3 3 3 3 4 4 4 2 2                         ",
"                      3 3 i i l l z x x x x x x x x x x x x x x x x x x x x x x x x x x x x z l l i i 3 3                       ",
"                    3 i x x c v v b b b n m m m m m m m m m m m n n n n m m m m m m m m b b b v v c x z i 3                     ",
"                  3 i x v b m M C C B B V V V V V V V V V V V V V V V V V V V V V V V V B B C C M m b v x i 3                   ",
"              ; 2 3 x v n M B V Z A A S S { { { { { { { { { { { { { { { { { { { { { { S S A A Z V B M n v z 3 2 ;               ",
". . X O + # - ; 2 i x b M B D A { *.*.=.=.=.=.=.=.=.=.=.=.=.=.=.=.=.=.=.=.=.=.=.=.=.=.=.=.*.*.{ A D B M b x i 2 ; - # + O X . . ",
". . X O + # - ; 4 i c m B D S *.=.;.2.3.4.4.5.5.5.5.5.5.4.4.4.4.4.4.4.4.5.5.5.5.5.5.4.4.3.2.;.=.*.S D B m c i 4 ; - # + O X . . ",
". . X O + # - ; 4 l v M V A *.=.2.4.8.6.7.9.9.9.9.9.9.9.9.9.9.7.9.9.9.9.9.9.9.9.9.9.9.7.6.8.4.2.=.*.A V M v l 4 ; - # + O X . . ",
". . X O + # - ; 3 l v C Z { =.2.5.6.9.k.l.v.b.b.b.b.b.b.v.v.v.v.v.v.v.v.b.b.b.b.b.b.v.l.k.k.6.5.2.=.{ Z C v l 4 ; - # + O X . . ",
". . X O + # - ; 3 z b C D *.;.4.6.k.v.m.n.M.F.F.F.F.F.F.F.M.n.n.n.n.M.F.F.F.F.F.F.F.M.n.m.v.k.6.5.;.*.A C b z 3 ; - # + O X . . ",
". . X O + # - ; 3 x b B A *.2.8.k.v.n.F.G.G.L.I.I.I.I.G.G.G.G.G.G.G.G.G.I.I.I.I.I.G.G.G.F.n.v.9.8.2.*.A B b x 3 ; - # + O X . . ",
". . X O + # - ; 3 x b B S =.3.6.k.m.F.G.I.W.E.E.E.E.E.E.E.W.I.I.I.I.W.E.E.E.E.E.E.E.W.I.G.F.m.k.6.3.=.S B b x 3 ; - # + O X . . ",
". . X O + # - ; 3 x m V S =.4.7.l.n.G.I.E.R.~.~.~.~.~.~.R.R.R.R.R.R.R.R.~.~.~.~.~.~.R.E.I.G.n.l.7.4.=.S V m x 3 ; - # + O X . . ",
". . X O + # - < 3 x m V { =.5.9.v.N.G.W.R.~.(.[.XX[.[.(.(.~.~.~.~.~.~.(.(.[.XXXX[.(.~.R.W.G.N.v.9.4.=.{ V m x 3 ; - # + O X . . ",
". . X O + # - ; 3 x m V { =.5.9.b.F.L.E.~.(.XX#X#X#X#XXXXX(.(.(.(.(.(.XXXX#X#X#X#XXX(.~.E.L.F.b.9.5.=.{ V m x 3 < - # + O X . . ",
". . X O + # - < 3 x m V { ;.5.9.b.F.T.E.(.XX#X#X#X#X#X#XXXXXXXXX{.XXXX#X#X#X#X#X#X#XXX(.R.T.F.b.9.5.=.{ V m x 3 < - # + O X . . ",
". . X O + # - ; 3 x m F { ;.5.9.b.F.T.R.(.XX#X*X*X*X*X#X#XXXXXXXXXXXXX#X#X#X*X*X*X#XXX{.R.T.F.b.9.5.;.{ F m x 3 < - # + O X . . ",
". . X O + # - < 3 x m F { ;.5.9.b.F.T.R.{.XX#X*X*X*X*X#X#XXXXXXXXXXXXX#X#X*X*X*X*X#X#X{.R.T.F.b.9.5.;.{ F m x 3 < - # + O X . . ",
". . X O + # - < 3 x m V { ;.5.9.b.F.T.E.(.XX#X*X*X*X#X#X#XXXXXXXXXXXXX#X#X#X*X*X*X#XXX{.E.T.F.b.9.5.;.{ F m x 3 < - # + O X . . ",
". . X O + # - ; 3 x m V { ;.5.9.b.F.=XE.(.XX#X#X#X#X#X#XXXXXXX{.{.{.XXXX#X#X#X#X#X#XXX(.E.=XF.b.9.5.;.{ F m x 3 < - # + O X . . ",
". . X O + # - < 3 x m V { =.5.9.v.F.L.E.~.(.XX#X#X#XXXXXXX{.(.(.(.(.(.XXXXXX#X#X#XXX{.~.E.L.F.v.9.5.=.{ V m x 3 ; - # + O X . . ",
". . X O + # - < 3 x m V { =.5.9.v.N.G.W.R.~.(.XXXXXX[.(.(.(.~.~.~.~.~.(.(.[.XXXXXX(.(.R.W.G.N.v.9.5.=.{ V m x 3 ; - # + O X . . ",
". . X O + # - ; 3 x n V { =.4.7.v.n.G.W.E.].~.(.(.(.(.~.~.~.R.R.R.R.].~.~.(.(.(.(.~.~.E.I.G.n.v.7.4.=.{ V m x 3 ; - # + O X . . ",
". . X O + # - ; 3 x b B } =.4.7.l.n.G.I.Y.R.].].].].].R.R.R.E.E.E.E.R.R.].].].].].].R.Y.I.G.n.l.7.3.=.{ B b x 3 ; - # + O X . . ",
". . X O + # - ; 4 z b B } -.>.6.k.n.H.K.U.Y.Y.R.R.R.Y.Y.Y.Y.Y.Y.Y.Y.Y.Y.Y.Y.Y.Y.Y.Y.Y.Y.K.H.n.k.6.3.=.} B b z 4 ; - # + O O . . ",
". . X O + # - ; 4 p b B } -.>.8.k.B.H.K.K.U.U.Y.Y.Y.U.U.U.U.P.P.P.P.P.U.U.U.U.U.U.U.U.P.K.H.B.k.8.>.-.} B b p 4 ; - # + O O . . ",
". . O O + # - ; 4 p b B } -.>.1.z.x.V.K.J.J.P.P.P.P.P.P.J.J.J.J.J.J.J.J.P.P.P.P.P.P.J.J.K.V.x.z.1.>.-.} B b p 4 ; - # + O O . . ",
". . O O + # - ; 4 p b N ] [ <.,.t.x.V.A.S.D.J.J.J.J.J.D.D.D.D.D.D.D.D.D.J.J.J.J.J.J.D.D.A.V.x.t.,.<.[ ] N b p 4 ; - # + O O . . ",
". . O O + # - ; 1 p a N ] [ <.,.t.j.x.C.Z.S.S.S.S.S.S.S.S.S.A.A.A.A.S.S.S.S.S.S.S.S.S.A.C.x.j.t.,.<.[ ] N a p 1 ; - @ + O O . . ",
". . O O + # - : 1 p a N ] [ <.,.t.a.h.g.C.Z.Z.Z.Z.Z.Z.Z.Z.Z.C.C.C.C.Z.Z.Z.Z.Z.Z.A.Z.Z.C.g.h.a.t.,.<.[ ] N a e 1 : - @ + O O . . ",
". X O O + @ - : 1 e a j ] [  .:.q.a.h.d.g.c.c.c.c.c.c.c.c.c.g.g.g.g.c.c.c.c.c.c.c.c.c.g.d.h.a.q.:.<.[ ] j a e 1 : - @ + O O X . ",
". X O O + @ - : 1 e a j L [  .:.q.w.s.p.d.f.f.f.f.f.f.f.f.f.d.d.d.d.f.f.f.f.f.f.f.f.f.d.p.s.w.q.:. .[ L j a e 1 : - @ + O O X X ",
"X o O O + @ - : 1 e a j L T  .:.0.w.i.u.u.u.p.p.p.p.p.p.p.u.u.u.u.u.u.p.p.p.p.p.p.p.u.u.u.i.w.0.:. .T L j a e > : - @ + O O o X ",
"X o O O + @ - : > e a g L T W ..0.w.w.e.y.y.u.u.u.u.u.u.y.y.y.y.y.y.y.y.u.u.u.u.u.u.y.y.e.w.w.0...W T L j a w > : - @ + O O o X ",
"X o O O + @ & : > w r g L P W ! o.X.w.r.e.e.e.y.y.y.y.y.e.e.e.e.e.e.e.e.e.y.y.y.y.e.e.e.r.w.X.` ! W P L g a w > : & @ + O O o o ",
"o o O O + @ & : > w r g k P W ! ( X.+.@.%.%.%.&.&.&.%.%.%.%.%.%.%.%.%.%.%.%.&.&.%.%.%.%.@.+.X.( ! W P k g r w > : & @ + O O o o ",
"o o O O + @ & % > w r g k P W Q ( ` +.O.@.@.#.#.#.#.#.#.#.@.@.@.@.@.@.#.#.#.#.#.#.#.@.@.O.+.` ( Q W P k g r w > % $ @ + O O o o ",
"o o O O + @ $ % > w t s h H K Q ~ / _ ' O.O.O.$.$.$.$.O.O.O.O.O.O.O.O.O.O.$.$.$.$.O.O.O.' _ / R Q K H h s t w * % $ @ + O O o o ",
"o o O O + @ $ % * 8 t s f H P W Q ~ / ) _ _ ' ' ' ' ' ' ' _ _ _ _ _ _ ' ' ' ' ' ' ' _ _ ) / ~ Q W P H h s t 7 * % $ @ + O O o o ",
"o o O O + @ $ % * 8 9 y f I J K E Q ~ ~ ^ / ) ) ) ) ) ) / / ^ ^ ^ ^ / / ) ) ) ) ) ) / ^ ~ ~ Q E K J I f y 9 8 * % $ @ + O O o o ",
"o o O O + @ $ % * 5 9 y s d H J K Y E E R R R R R R R R R R R R R R R R R R R R R R R R E E Y K J H d s y 9 5 * % $ @ + O O o o ",
"o o O O + @ $ % = 5 9 0 u f d H J K K U U U Y Y Y Y Y Y Y Y U U U U Y Y Y Y Y Y Y Y Y U U K K J H d f u 0 9 5 = % $ @ + O O o o ",
"o o O O + @ $ % = 5 7 9 y s f d G H H J J J J J J J J J J J J J J J J J J J J J J J J J J H H G d f u y 9 7 5 = % $ @ + O O o o ",
"              % = * 6 9 q y u s f f d d d G G G G G G G G G G G G G G G G G G G G G G d d d d f s u y q 9 6 * = %               ",
"                  * 5 7 9 9 0 y y y u u s s s s s s s s s s s s s s s s s s s s s s s s u u y y y 0 9 9 7 5 *                   ",
"                    * 5 6 7 9 9 9 9 q q 0 0 0 0 0 0 0 0 0 0 0 0 0 0 0 0 0 0 0 0 0 0 0 0 q q 9 9 9 9 7 6 5 *                     ",
"                      * * 5 5 5 5 7 7 7 7 7 7 7 7 7 7 7 7 7 7 7 7 7 7 7 7 7 7 7 7 7 7 7 7 7 7 5 5 5 5 * *                       ",
"                        = = = * * * * * * * * * * * * * * * * * * * * * * * * * * * * * * * * * * = = =                         ",
"                        % % % % % % % % % % % % % % % % % % % % % % % % % % % % % % % % % % % % % % % %                         ",
"                          $ $ $ $ $ $ $ $ $ $ $ $ $ $ $ $ $ $ $ $ $ $ $ $ $ $ $ $ $ $ $ $ $ $ $ $ $ $                           ",
"                          @ @ @ @ @ @ @ @ @ @ @ @ @ @ @ @ @ @ @ @ @ @ @ @ @ @ @ @ @ @ @ @ @ @ @ @ @ @                           ",
"                          + + + + + + + + + + + + + + + + + + + + + + + + + + + + + + + + + + + + + +                           ",
"                          O O O O O O O O O O O O O O O O O O O O O O O O O O O O O O O O O O O O O O                           ",
"                          O O O O O O O O O O O O O O O O O O O O O O O O O O O O O O O O O O O O O O                           ",
"                          o o o o o o o o o o o o o o o o o o o o o o o o o o o o o o o o o o o o o o                           ",
"                          o o o o o o o o o o o o o o o o o o o o o o o o o o o o o o o o o o o o o o                           "
};
