/* XPM */
static char *Dirt_08_128x128[] = {
/* columns rows colors chars-per-pixel */
"64 64 170 2 ",
"   c #1B243A",
".  c #2C2E3E",
"X  c #1F2840",
"o  c #222B43",
"O  c #2A3045",
"+  c #2C344C",
"@  c #353341",
"#  c #383843",
"$  c #33374A",
"%  c #33384D",
"&  c #3A3D4E",
"*  c #2B3551",
"=  c #2F3954",
"-  c #343B53",
";  c #3A3E54",
":  c #323C58",
">  c #403F4F",
",  c #3E4154",
"<  c #37405C",
"1  c #3C435C",
"2  c #3F4762",
"3  c #44434E",
"4  c #49454D",
"5  c #434455",
"6  c #494855",
"7  c #42455B",
"8  c #46495D",
"9  c #4A4B5C",
"0  c #504C57",
"q  c #504E5D",
"w  c #54515D",
"e  c #5C545C",
"r  c #61575C",
"t  c #414761",
"y  c #454A62",
"u  c #4C4D62",
"i  c #4A4F68",
"p  c #524F61",
"a  c #4E5165",
"s  c #4F526A",
"d  c #535365",
"f  c #595564",
"g  c #5D5966",
"h  c #55556A",
"j  c #595769",
"k  c #56586C",
"l  c #5C5A6C",
"z  c #575A72",
"x  c #5D5C71",
"c  c #635B65",
"v  c #695E67",
"b  c #625D6D",
"n  c #685F6E",
"m  c #625E71",
"M  c #65616E",
"N  c #6B636E",
"B  c #746667",
"V  c #72656C",
"C  c #74696E",
"Z  c #796B6E",
"A  c #656272",
"S  c #6B6574",
"D  c #6E6975",
"F  c #666478",
"G  c #6C6779",
"H  c #6E6979",
"J  c #706774",
"K  c #726A76",
"L  c #7A6E75",
"P  c #726778",
"I  c #746D7B",
"U  c #796E7C",
"Y  c #7D7176",
"T  c #76707C",
"R  c #7A727D",
"E  c #7F787F",
"W  c #817175",
"Q  c #82757D",
"!  c #84797E",
"~  c #8B7A7D",
"^  c #917D7B",
"/  c #93807E",
"(  c #756E80",
")  c #756F81",
"_  c #796E80",
"`  c #7A6F80",
"'  c #796F80",
"]  c #767081",
"[  c #787180",
"{  c #797180",
"}  c #7B7281",
"|  c #7C7081",
" . c #7E7080",
".. c #7C7380",
"X. c #7C7382",
"o. c #7D7382",
"O. c #7C7480",
"+. c #7D7480",
"@. c #7F7580",
"#. c #7D7680",
"$. c #7E7482",
"%. c #7F7583",
"&. c #7D7682",
"*. c #7F7783",
"=. c #7C7384",
"-. c #7F7385",
";. c #7F7484",
":. c #7F7784",
">. c #7C7481",
",. c #7F7882",
"<. c #7F7884",
"1. c #7F7882",
"2. c #817581",
"3. c #817781",
"4. c #837681",
"5. c #817682",
"6. c #807782",
"7. c #837783",
"8. c #867782",
"9. c #817682",
"0. c #827880",
"q. c #807883",
"w. c #827982",
"e. c #827A83",
"r. c #837A83",
"t. c #867B81",
"y. c #857882",
"u. c #867883",
"i. c #867E83",
"p. c #807986",
"a. c #847A84",
"s. c #857B87",
"d. c #847A84",
"f. c #887980",
"g. c #8A7C80",
"h. c #8A7E80",
"j. c #8A7C83",
"k. c #897B85",
"l. c #8D7C84",
"z. c #8E7C87",
"x. c #8D7F87",
"c. c #8A7C84",
"v. c #867E8A",
"b. c #847B89",
"n. c #8C7E88",
"m. c #8D7E8C",
"M. c #8A7E89",
"N. c #917F85",
"B. c #878087",
"V. c #8D8086",
"C. c #8C8189",
"Z. c #8D8189",
"A. c #908086",
"S. c #938285",
"D. c #998586",
"F. c #90838B",
"G. c #95878B",
"H. c #938489",
"J. c #9C868A",
"K. c #96888E",
"L. c #9A888B",
"P. c #9B898C",
"I. c #958690",
"U. c #A48D87",
"Y. c #A48E8D",
"T. c #A38F8E",
"R. c #A28E91",
"E. c #A09094",
"W. c #A89292",
"Q. c #B4A099",
/* pixels */
"d A K D R U U 6.O.Y U R T I K 7 , d M S x.U x.O.R U ..,.R R U U U S S A A Z.H u j K I R I O.U P U K U ! i.D l L.y.A l y N j.a + ",
"6 9 k U U U T K P K U R I R M < c ! j.K I b U R I D I R O.R T U I l d D O.F.F D k.e.e.6.I P G U T O.R ,.S x y.P S S A d b 6 6 L ",
"f g l A a.e.T M K R O.U A D u b ~ G.r.R y.6.! Y P U U U U x x U S 7 8 S e.M.H 6.D R 6.U R I S e.O...O.I l j.e.R O.l d p S l K Y ",
"Q Q Y.j.v.R U D L T I P U ..D ~ K e.I ` ..R T K P D A M k - d U A j U K y.e.K E K J U U O.K S 6.s.=.=.[ P U H [ z t f c n u K R ",
"n.R I ..P T ..R S D I R G G :.U y.U [ m.R I D R D D A l 1 % 8 l T S I R Z.O.I R U K R ,.R D K R K O.:...U I I k 8 b K d 9 b Q A.",
"U P K A Q R U O.T D D 6.P r.O.[ H l F.U U M K A H S I d 8 + . , D I a.U m T R s.O.U R T [ R D [ I [ O.R A U D D U n g d N D.W.P.",
"c.U A D R U U U O.K R U R 6.F D M c.R P K n S u S A I A - & e B Y a.X.s n l D S S U T I [ H A H I H R U D S T K U L Q V.k.D.c.U ",
"U U M U R A [ p.I H 6.H P D S S N R O.6.P R y u b S k 7 - V e C M K H I P b K l S D D x S S K K U A U U R ,.O.U 6.U D P I P D R ",
"U U A S S k P p.P U e.U G S U D R U T I R F b U L Q D Y l g Q N N L.U I O.U Y e.x.K U m U P d M D D 6.O.T X.T a.I F 6.R Q S S K ",
"D [ A U x U V.8.R R B.U R R Q R ,.T H O.P k U O.U Y S G.R s.c.S Q Z.U D b Y k.R P R A G S l u l K I e.I D I I E H 6.r.U R T K U ",
"D H a.x [ y.R R U U A S H l A O.R T R E S n D m R y.y.U U U I S R P K U U Z.e.P R D u S S l l S R S b R X.R R K R [ O.X.T U U U ",
"H A D y.V.n U U U I S b l S K O.O.R R I l l U J...x 2 d u D A l M A 6.R [ O.E P H l l l.S A D K U k l ` P U R ..6.P K U ..=.R U ",
"A R R S A S 6.A A R [ U U c.G.r.I D U R E c.a.l y l b x.b L A I H Q H.U R H ..I H G R K A K U U u p Q ! Q U P U U I R R :.B...F ",
"a.R S b n y.H 9 U B.I H ,.:.U U A M I R R O.[ 7 D V.Q O.G.6.R O.U e.H.R 6.T U R R R R E S M a.l & f g S 6.U P R P X.e.U r.,.X.P ",
"s u 9 b U S S x.k.D T P P s.A H X.S M U H P K b L R b U b m 6.E U e.O.O.U R R ,.R R R a.R R K b w N N y.Z.L P R R T R P [ O.I ) ",
"A L L D.e.F R R I R O.[ R A E E x k K M.A U S D M 6.I K S R j.P r.O.R U U R T U [ O.O.` ..R U K K Y l.x.x.U U R O.R U I O.E I x ",
"6.Y k.Q A P S d U R T H b K A k A k.y.R k j N K S O.H R R D 6.U T r.T O.R R K D A S [ ..U U I U [ e.e.e.R U p.[ R R [ s.O.R U b ",
"U K 2.R O.O.U 6...U U A R P l m x.L.U M A b q M A U R S m l S F S O.R R K K R A x S O.[ ..R R U [ :.R U U I [ U K D U U P I R ..",
"T R U [ a.[ p.U :.M.m S K.T R U R S A Q A f d Y k.R D d d M b K Q 6.U [ K U P U S D U U T T U R <.r.R P p.U P K A D U P D D U R ",
"U K b 2.5...p.R U ....V.O.H p.S O.U D R ..A D G.c.k y ; N S A N.a.[ U ..U U I O.m A 8.U H O.R O.R r.T K D I O.R I U R U R R R O.",
"H M K P U R R R O.U U T l D m K I R U U p.H O.V.A D A S L T P.c.P P U G G U R [ S S 8.U U E U R T T U H D D S K I P 6.U K U R X.",
"I T R U U [ O.O.O.U D l u d k u f A I R X.O.O.T T T R ! H.E.I.p.p.P l A S R R <.U K E R R O.,.O.O.S b P O.F T E I I G U R U U R ",
"R E P T r.p.U [ O.U b l u w 6 ; g U U U O.R I b T R S R F.r.[ 6.R x j f A a.p.r.r.U O.O.O.[ p.U H F U R A R a.a.U U U P I K T R ",
"T H F M.p.T X.[ [ ` D F u 9 9 5 C K U ..:.O.P K E 6.S ! R S P S d u b g K c.a.O.O.r...T I O.r.D P P K O.D y.U H H G P P 6.E U K ",
"S S R B.[ U R R ..U G x A O o 3 C L ! O.R U U e.R R U R I D D u - - N Y ! 6.R U :.r.T R R R O.O.O.P U S D R.U x T b T s.p.O.O.I ",
"K D ! r.O.K U U X.R x b y + # r V L T T R K R T O.a.G ..I x D l l K D.e.Y U D I U [ O.P U P P =.:.R E R B.I 1 d E e.D a.X.[ [ I ",
"O.T r.R U [ P X.:.6.A = 9 Z b N l.Q j.6.U R r.[ R ....O.I O.c.P U U j.O.6.R U P x A S u A O.D G P R T T X.G D 9 M A P s.,.P D T ",
"T O.O.K S :.I T ,.p.F y v V K R j.F.F.U R R O.P U U U H P U P U y.H.G P e.O.A : < c.h c H.R I R H P [ S U R p.y 9 M 6.c.v.R K R ",
"U R R S P r.:.H e.U x d A S K L R x.a.U U <.U R T S D K R G b R r.S F Q R I * % v L.l L.e.T s.U U R U S l l < * + K l.U U T S U ",
"O.[ G S U p.[ K Q P s D y.Q L Q l.y.O.I R r.X.[ P D K S T H O.M.F l U R a.k , c / Y n Q s.R D P b u u d t * K N + L A.S U D R O.",
"I ) H R O.O.U K U F j T D U U Q c.L K O.T X.U U O.U s k S R B.G m U R U [ H Q Y Y 6.S A T G K H h u M 9 + & f 8 , u y.D P b U U ",
"A S a.C.O.R ..K K S P I K U I O.a.R R [ A H U I U l t l R y.H S j e.G P G L D U U I R S A O.m l ; y < ; . @ X , g 6 A j S D O.P ",
"S T S I O.U A D K U U R E y.Z.e.r.=.U U P P O.p.P d f ; b % l I U 8.S H D l O.U L U R D K e.6.d 9 6 w V O 4 4 6 & c ! A c.m 6.R ",
"S k k.S s d s 8 d l S l d D R U U X.O.U O.R R I U K % & 5 w Q.Z.y.R m K d A O.E R T [ U U H S A l L ~ N , e & e 6 W K R G G s.R ",
"G m R i 8 S j 9 b d e.l d g j O.U R R I T [ U H A D A b 5 U.j.D t < d 8.E ! U F D r.[ P K [ e.R R s.T j L 8 0 L c Q D A h H U U ",
"=.[ 6.x b 9 6 L K b L b K ! Q j.6.K U R H H S k t A S d W J.U x l K L c.[ U U D R U P J Q R I A F D b u 9 d D J.S a H.G k l m j.",
"l R U 6.S K Y d U N k.! D R a.s.P U U [ D ! R 1 % K H y.! D l K U Q U j.O.H I E E I P P S m S U j.H d d N E K A x S P.h g S Z.I ",
"; R R I R D D l 8.Z.e.X.,...U K I U R O.X.U l d N D.P.a.A K b d d u b x.U T K I m P L P G O.U Q U A I I V.l l U j.O.A c 9 ~ c.+ ",
"f l.a.l A U R Q A.M.6.R :.:.O.T I H [ X.[ a.m M A.O.P A A d u l g 5 J l u l S S U O.I S U U K A U R l M D d ~ K R U R T b Y y o ",
"Q k.D b U U P y.O.Z...O.[ O.e.U [ U R T X.R I T U I L b S d f l t K S s 8 M b S O.O.R U M.T 6.6.R S k f D U A.y.U S S l b l S u ",
"U E O.U A P P m P U U H I R X.S P R U E O.6.I l S R R T K l S 8 d M u - g ^ N K L e.O.A I r.U 6.U S S N S.y.R K K T S N K R U M ",
"D e.R l U x.6.P R U R u D [ I I R R R R P T I R R O.a.E A d d g L M - 4 e b d L ,.T I S M.=.p.O.P S A K Z.x S X.R R R R E I A N ",
"K ! M L k.K T R U p.H l c.U D U P I U N U I I T O.p.O.T D k g Y N N d Z ~ S.A.R l X.H I v.O.R D U T I U X.G R y.U r.:.U O.[ K R ",
"M.Z.U n.P I S K R p.I K I H U R S D I A A E I K K U I U O.U R D.R K L Q j.P.l - l I I P p.O.T K R R R O.U O.6.K K [ U P U P R 7.",
"..r.p.P U O.U D U X.P A K e.x.U H D U U E S K F K e.S R R A D E A S K e.a.m u q ; y l U R R E R U U R O.6.6.[ K [ :.P P P K 6.R ",
"U O.[ R X.R U D D F S S E c.v.H U ..A P A A A y R S [ ..,.U R y.E P Q 6.O.S U Q a d u b D e.R U U R ` U U R U e.[ [ U K U U U O.",
"I R R R U K U T P U U Y K O.R ..P P l 1 k b b N e.b Y p.O.R L I U U 6.U H A b u 7 L J N R E O.J I U [ R U U [ U R [ [ R T ..[ [ ",
"R X.P U R T R O.U [ U K R E U U G R D S K U D 6.U R U X.O.R T I R O.T D k P H d f A K ~ R R ..U U ..U R R U R I U [ [ S I R U [ ",
"R U P R R T R O.H R U U D I R I U R D R P U k A O.U O.a.X.O.O.U R U [ D u u u b D u c L n y.O.O.R O.U R O.R U U P P H D I y.T I ",
"R S F ,.T U ..U U Q U U D R ..A A U H R B.r.s l G Q j.r.[ U U U O.R X.R s 5 b f y.I k.L Q 6.<.r.O.X.D R R U K D P I R T E T l I ",
"M A U a.U R I U R R R P S K U m S B.F h F l k d A A I X.U U D A U P R O.u d N Y c.O.O.O.R E e.R R [ U T U I U P U P [ U c.F k j ",
"A I D I r.U S R r.O.r.:.H S l A y.R D 8 9 u d ; 6 8 u l k x m U a.U P O.R S Y R.n.S U R 6.R R P U U 2.[ =.U D R U U I U I A A A ",
"D S L y.O.P S 6.e.T r.p.U l f N j.P O.u d N w q c 6 g Q A j U a.I D R p.S S 8.a.H U a.:.r.I K I U R [ R :.U I U U E I M E P l R ",
"R e.j.T A m P K.v.O.[ [ I S S M E v.U H U b f 9 6   6 9 d R J.U A U R p.U R I U O.O.O.U [ U R X.S R U R e.I I P U I m e.O.F U 6.",
"R E R U R U R R O.U [ [ A b E E ! M.F R O.S u 5 $ 4 ^ 8 9 J a.R m S R U D D A I [ U U U U U O.I O.c.r.R X.U P R U I H 8.R 6.M.R ",
"R H [ [ R R R U T S K k l M r.T i.I D k.P F m L w W f K N L k.U S N S J P K U a.R U U D R O.H X.M.v.O.:.[ P I D l U [ Z.p.a.[ U ",
"O.U ..U U R X.R U P A J R R R Q U T s.A P R r.c.y.b M ~ N ! P.x k l n ..O.R a.v.O.J P U R I U O.O.:.P D I S M u l T R R U U U P ",
"..U O.) 6...U R :.P D F k G Z.e.I I I K R P P O.O.U R U R H.R ; , s K U [ T v.U P U T a.U P U U P m S 6.U D A 8 - K R P U R U U ",
"R P R R e.U U R S k l k u U r.F P U D m U R ..s.R D R U R R d 9 6 N L U R O.R D I T r.T R :.U I S M R A U l l 1 Y T.R n R :.O.R ",
"[ I U K E R O.G m b D 1 A y.S S H 6.h S U P D I r.U G :.p.R R S K ~ ~ k.K R r.R R U I I p.M.U k A R D a.P s 9 Q D.e.S ! 6.p.p.r.",
"R [ U T O.I X.I T l 1 y U l c K K k l 8.R K N U a.S m U D P O.U E s.8.R O.R [ I I R K U c.R S A G.U y.O.A P V.A g J Y O.[ ..p.O.",
"U K P T E H I l l A l y N ~ K S s 1 u U U I R ..:.U 6.R ..U O.[ O.O.O.U U [ P P [ T I U L D T a.e.[ G H x y.s A A.U O.:.a.O.T R ",
"K D I U e.D H x d l I A A.s.U u b c N S b k.U S R [ E R e.R R O.[ X.R R [ 6.I R O.A T R S D I U ) A m m P S K I H R :.B.S A A U ",
"D R S S R U G D b Q 6.R R O.H d J N Q K Y H.H R X.p.U R R U X.R [ [ U P S T U [ T M R Y R U O.U U M b K E a.R A K y.s.G y s D b "
};
